<?xml version="1.0" standalone="no"?>
<!DOCTYPE svg PUBLIC "-//W3C//DTD SVG 20010904//EN"
 "http://www.w3.org/TR/2001/REC-SVG-20010904/DTD/svg10.dtd">
<svg version="1.0" xmlns="http://www.w3.org/2000/svg"
 width="348.000000pt" height="348.000000pt" viewBox="0 0 348.000000 348.000000"
 preserveAspectRatio="xMidYMid meet">

<g transform="translate(0.000000,348.000000) scale(0.100000,-0.100000)"
fill="#000000" stroke="none">
<path d="M40 1735 l0 -1695 1695 0 1695 0 0 1695 0 1695 -1695 0 -1695 0 0
-1695z m3370 0 l0 -1675 -1675 0 -1675 0 0 1675 0 1675 1675 0 1675 0 0 -1675z"/>
<path d="M2945 3230 c-46 -10 -79 -35 -103 -79 -56 -98 4 -215 119 -236 72
-13 168 53 184 126 25 111 -85 215 -200 189z m114 -39 c95 -67 90 -187 -10
-239 -97 -51 -209 14 -209 121 0 67 31 109 97 132 44 15 88 10 122 -14z"/>
<path d="M1661 3010 c-137 -29 -243 -84 -343 -178 -160 -152 -233 -320 -233
-542 0 -222 73 -390 233 -542 82 -77 167 -127 272 -160 62 -19 96 -23 195 -22
104 0 130 4 200 28 109 38 176 77 258 155 159 150 232 320 232 541 0 222 -73
390 -233 542 -127 120 -263 177 -437 183 -55 2 -120 0 -144 -5z m254 -25 c39
-8 106 -32 150 -53 181 -87 301 -233 366 -442 34 -107 34 -293 0 -400 -65
-209 -185 -355 -366 -442 -188 -90 -382 -90 -570 0 -181 87 -301 233 -366 442
-34 107 -34 293 0 400 65 210 185 355 366 442 136 65 277 83 420 53z"/>
<path d="M1661 2784 c-126 -34 -250 -133 -314 -251 -36 -67 -67 -191 -67 -268
0 -77 31 -201 67 -268 107 -198 335 -305 538 -252 129 34 253 132 318 252 36
67 67 191 67 268 0 77 -31 201 -67 268 -108 199 -339 306 -542 251z m271 -34
c129 -48 240 -168 290 -310 18 -52 22 -87 22 -175 0 -88 -4 -123 -22 -175 -50
-142 -159 -260 -290 -311 -81 -32 -233 -32 -314 0 -131 51 -240 169 -290 311
-34 98 -32 258 4 357 45 126 135 231 245 287 99 50 248 57 355 16z"/>
<path d="M533 2066 c-61 -29 -106 -85 -128 -159 -28 -93 -11 -188 45 -266 36
-48 115 -91 170 -91 55 0 134 43 170 91 56 78 73 173 45 266 -31 104 -123 183
-215 183 -19 0 -58 -11 -87 -24z m163 -15 c75 -34 134 -135 134 -231 0 -131
-100 -250 -210 -250 -110 0 -210 119 -210 250 0 131 100 250 210 250 19 0 53
-9 76 -19z"/>
<path d="M555 2001 c-114 -69 -140 -228 -53 -327 75 -86 161 -86 236 0 69 78
69 204 0 282 -57 65 -124 81 -183 45z m122 -18 c19 -9 47 -34 61 -56 23 -34
27 -51 27 -112 0 -61 -4 -78 -27 -112 -27 -41 -79 -73 -118 -73 -39 0 -91 32
-118 73 -23 34 -27 51 -27 112 0 62 4 77 28 114 44 66 107 86 174 54z"/>
<path d="M2897 2026 c-58 -21 -101 -55 -138 -109 -31 -45 -34 -56 -34 -122 0
-66 3 -77 34 -122 112 -164 330 -164 442 0 31 45 34 56 34 122 0 66 -3 77 -34
122 -71 104 -194 148 -304 109z m166 -20 c89 -32 157 -123 157 -212 0 -62 -45
-143 -103 -181 -122 -81 -285 -41 -349 86 -35 68 -36 119 -4 187 38 82 122
133 216 133 25 0 62 -6 83 -13z"/>
<path d="M2915 1961 c-155 -72 -151 -289 7 -356 47 -19 79 -19 126 0 49 21 81
52 103 100 46 100 0 216 -103 260 -49 20 -84 19 -133 -4z m145 -24 c53 -28 90
-90 90 -152 0 -90 -81 -175 -165 -175 -84 0 -165 85 -165 175 0 90 81 175 165
175 18 0 51 -10 75 -23z"/>
<path d="M860 1215 l0 -305 875 0 875 0 0 305 0 305 -875 0 -875 0 0 -305z
m1730 0 l0 -285 -855 0 -855 0 0 285 0 285 855 0 855 0 0 -285z"/>
<path d="M1263 1207 c-62 -139 -113 -256 -113 -260 0 -5 14 -7 32 -5 31 3 33
7 145 253 62 138 113 253 113 258 0 4 -15 7 -32 7 l-33 -1 -112 -252z"/>
<path d="M2187 1453 c-9 -14 -227 -503 -227 -508 0 -11 58 -4 67 8 5 6 21 39
36 72 14 33 64 144 111 248 l85 187 -34 0 c-19 0 -36 -3 -38 -7z"/>
<path d="M982 1073 c3 -38 3 -38 51 -41 l47 -3 0 40 0 41 -51 0 -50 0 3 -37z"/>
<path d="M1550 1070 l0 -40 45 0 45 0 0 40 0 40 -45 0 -45 0 0 -40z"/>
<path d="M1792 1073 c3 -38 3 -38 51 -41 l47 -3 0 40 0 41 -51 0 -50 0 3 -37z"/>
<path d="M2360 1070 l0 -40 45 0 45 0 0 40 0 40 -45 0 -45 0 0 -40z"/>
<path d="M1250 700 l0 -150 505 0 505 0 0 150 0 150 -505 0 -505 0 0 -150z
m990 0 l0 -130 -485 0 -485 0 0 130 0 130 485 0 485 0 0 -130z"/>
<path d="M1340 780 c0 -5 -7 -10 -15 -10 -8 0 -15 -4 -15 -10 0 -5 7 -10 15
-10 12 0 15 -14 15 -65 0 -51 -3 -65 -15 -65 -8 0 -15 -4 -15 -10 0 -5 18 -10
40 -10 22 0 40 5 40 10 0 6 -7 10 -15 10 -12 0 -15 16 -15 85 0 50 -4 85 -10
85 -5 0 -10 -4 -10 -10z"/>
<path d="M1430 745 c0 -43 1 -45 29 -45 40 0 57 -23 42 -56 -10 -22 -16 -25
-42 -19 -24 6 -30 4 -27 -6 7 -21 57 -23 79 -3 37 33 15 104 -32 104 -14 0
-19 7 -19 25 0 22 4 25 35 25 19 0 35 5 35 10 0 6 -22 10 -50 10 l-50 0 0 -45z"/>
<path d="M1573 778 c-18 -22 -24 -86 -13 -128 13 -50 50 -64 82 -32 24 24 30
113 10 150 -14 25 -63 31 -79 10z m61 -24 c12 -31 6 -111 -9 -124 -27 -22 -45
5 -45 70 0 31 3 60 7 63 12 13 41 7 47 -9z"/>
<path d="M1770 695 c0 -57 4 -95 10 -95 6 0 10 17 10 38 0 21 3 42 6 45 4 4
22 -14 41 -38 30 -40 53 -57 53 -39 0 4 -16 28 -35 55 l-36 48 37 40 c21 24
31 41 23 41 -8 0 -31 -19 -51 -42 l-37 -43 -1 43 c0 23 -4 42 -10 42 -6 0 -10
-38 -10 -95z"/>
<path d="M1910 695 c0 -98 16 -133 22 -47 3 46 3 47 40 50 l37 3 3 -48 c5 -83
23 -53 26 45 2 77 0 92 -13 92 -11 0 -15 -10 -15 -35 0 -34 -1 -35 -40 -35
-39 0 -40 1 -40 35 0 19 -4 35 -10 35 -6 0 -10 -38 -10 -95z"/>
<path d="M2065 730 c3 -5 17 -10 31 -10 30 0 30 -2 -6 -55 -16 -24 -30 -48
-30 -54 0 -14 87 -15 95 -1 4 6 -8 10 -29 10 -20 0 -36 3 -36 6 0 3 13 24 28
47 48 70 48 67 -8 67 -32 0 -49 -4 -45 -10z"/>
<path d="M250 470 l0 -280 250 0 250 0 0 280 0 280 -250 0 -250 0 0 -280z
m480 0 l0 -260 -230 0 -230 0 0 260 0 260 230 0 230 0 0 -260z"/>
<path d="M380 475 l0 -115 120 0 120 0 0 115 0 115 -120 0 -120 0 0 -115z"/>
<path d="M2850 415 l0 -255 240 0 240 0 0 255 0 255 -240 0 -240 0 0 -255z
m460 0 l0 -235 -220 0 -220 0 0 235 0 235 220 0 220 0 0 -235z"/>
<path d="M3099 477 c-42 -50 -100 -120 -128 -154 l-53 -63 39 0 c36 1 42 6
143 126 58 69 115 139 128 155 l23 29 -38 0 c-36 0 -42 -6 -114 -93z"/>
<path d="M840 320 l0 -180 415 0 415 0 0 180 0 180 -415 0 -415 0 0 -180z
m810 0 l0 -160 -395 0 -395 0 0 160 0 160 395 0 395 0 0 -160z"/>
<path d="M900 415 c0 -12 14 -15 70 -15 l70 0 0 -100 0 -100 30 0 30 0 0 100
0 99 72 3 c46 2 73 7 76 16 3 9 -36 12 -172 12 -150 0 -176 -2 -176 -15z"/>
<path d="M1311 380 c30 -27 57 -49 62 -50 21 -1 0 -30 -53 -74 -33 -28 -60
-51 -60 -53 0 -2 13 -3 29 -3 20 0 44 14 80 46 l51 46 50 -46 c38 -36 56 -46
82 -46 l33 1 -64 57 -63 58 63 57 c61 54 63 56 36 57 -20 0 -45 -14 -81 -45
l-52 -44 -51 44 c-38 34 -59 45 -84 45 l-33 0 55 -50z"/>
<path d="M1730 315 l0 -175 520 0 520 0 0 175 0 175 -520 0 -520 0 0 -175z
m1020 0 l0 -155 -500 0 -500 0 0 155 0 155 500 0 500 0 0 -155z"/>
<path d="M2062 413 c2 -13 37 -27 128 -53 69 -20 132 -39 140 -42 14 -5 -10
-13 -200 -68 -45 -14 -70 -26 -70 -35 0 -8 6 -15 13 -15 6 0 91 23 187 50 96
28 176 50 177 50 2 0 3 6 3 13 0 9 -65 32 -183 65 -101 29 -187 52 -191 52 -4
0 -6 -8 -4 -17z"/>
</g>
</svg>
