<svg version="1.0" xmlns="http://www.w3.org/2000/svg" width="464" height="464" viewBox="0 0 348 348"><path d="M4 174.5V344h339V5H4v169.5zm337 0V342H6V7h335v167.5z"/><path d="M294.5 25c-4.6 1-7.9 3.5-10.3 7.9-5.6 9.8.4 21.5 11.9 23.6 7.2 1.3 16.8-5.3 18.4-12.6 2.5-11.1-8.5-21.5-20-18.9zm11.4 3.9c9.5 6.7 9 18.7-1 23.9-9.7 5.1-20.9-1.4-20.9-12.1 0-6.7 3.1-10.9 9.7-13.2 4.4-1.5 8.8-1 12.2 1.4zM166.1 47c-13.7 2.9-24.3 8.4-34.3 17.8-16 15.2-23.3 32-23.3 54.2 0 22.2 7.3 39 23.3 54.2 8.2 7.7 16.7 12.7 27.2 16 6.2 1.9 9.6 2.3 19.5 2.2 10.4 0 13-.4 20-2.8 10.9-3.8 17.6-7.7 25.8-15.5 15.9-15 23.2-32 23.2-54.1 0-22.2-7.3-39-23.3-54.2-12.7-12-26.3-17.7-43.7-18.3-5.5-.2-12 0-14.4.5zm25.4 2.5c3.9.8 10.6 3.2 15 5.3 18.1 8.7 30.1 23.3 36.6 44.2 3.4 10.7 3.4 29.3 0 40-6.5 20.9-18.5 35.5-36.6 44.2-18.8 9-38.2 9-57 0-18.1-8.7-30.1-23.3-36.6-44.2-3.4-10.7-3.4-29.3 0-40 6.5-21 18.5-35.5 36.6-44.2 13.6-6.5 27.7-8.3 42-5.3z"/><path d="M166.1 69.6c-12.6 3.4-25 13.3-31.4 25.1-3.6 6.7-6.7 19.1-6.7 26.8 0 7.7 3.1 20.1 6.7 26.8 10.7 19.8 33.5 30.5 53.8 25.2 12.9-3.4 25.3-13.2 31.8-25.2 3.6-6.7 6.7-19.1 6.7-26.8 0-7.7-3.1-20.1-6.7-26.8-10.8-19.9-33.9-30.6-54.2-25.1zm27.1 3.4c12.9 4.8 24 16.8 29 31 1.8 5.2 2.2 8.7 2.2 17.5s-.4 12.3-2.2 17.5c-5 14.2-15.9 26-29 31.1-8.1 3.2-23.3 3.2-31.4 0-13.1-5.1-24-16.9-29-31.1-3.4-9.8-3.2-25.8.4-35.7 4.5-12.6 13.5-23.1 24.5-28.7 9.9-5 24.8-5.7 35.5-1.6zM53.3 141.4c-6.1 2.9-10.6 8.5-12.8 15.9-2.8 9.3-1.1 18.8 4.5 26.6 3.6 4.8 11.5 9.1 17 9.1s13.4-4.3 17-9.1c5.6-7.8 7.3-17.3 4.5-26.6C80.4 146.9 71.2 139 62 139c-1.9 0-5.8 1.1-8.7 2.4zm16.3 1.5C77.1 146.3 83 156.4 83 166c0 13.1-10 25-21 25s-21-11.9-21-25 10-25 21-25c1.9 0 5.3.9 7.6 1.9z"/><path d="M55.5 147.9c-11.4 6.9-14 22.8-5.3 32.7 7.5 8.6 16.1 8.6 23.6 0 6.9-7.8 6.9-20.4 0-28.2-5.7-6.5-12.4-8.1-18.3-4.5zm12.2 1.8c1.9.9 4.7 3.4 6.1 5.6 2.3 3.4 2.7 5.1 2.7 11.2s-.4 7.8-2.7 11.2c-2.7 4.1-7.9 7.3-11.8 7.3-3.9 0-9.1-3.2-11.8-7.3-2.3-3.4-2.7-5.1-2.7-11.2 0-6.2.4-7.7 2.8-11.4 4.4-6.6 10.7-8.6 17.4-5.4zM289.7 145.4c-5.8 2.1-10.1 5.5-13.8 10.9-3.1 4.5-3.4 5.6-3.4 12.2s.3 7.7 3.4 12.2c11.2 16.4 33 16.4 44.2 0 3.1-4.5 3.4-5.6 3.4-12.2s-.3-7.7-3.4-12.2c-7.1-10.4-19.4-14.8-30.4-10.9zm16.6 2c8.9 3.2 15.7 12.3 15.7 21.2 0 6.2-4.5 14.3-10.3 18.1-12.2 8.1-28.5 4.1-34.9-8.6-3.5-6.8-3.6-11.9-.4-18.7 3.8-8.2 12.2-13.3 21.6-13.3 2.5 0 6.2.6 8.3 1.3z"/><path d="M291.5 151.9c-15.5 7.2-15.1 28.9.7 35.6 4.7 1.9 7.9 1.9 12.6 0 4.9-2.1 8.1-5.2 10.3-10 4.6-10 0-21.6-10.3-26-4.9-2-8.4-1.9-13.3.4zm14.5 2.4c5.3 2.8 9 9 9 15.2 0 9-8.1 17.5-16.5 17.5s-16.5-8.5-16.5-17.5 8.1-17.5 16.5-17.5c1.8 0 5.1 1 7.5 2.3zM86 226.5V257h175v-61H86v30.5zm173 0V255H88v-57h171v28.5z"/><path d="M126.3 227.3c-6.2 13.9-11.3 25.6-11.3 26 0 .5 1.4.7 3.2.5 3.1-.3 3.3-.7 14.5-25.3 6.2-13.8 11.3-25.3 11.3-25.8 0-.4-1.5-.7-3.2-.7l-3.3.1-11.2 25.2zM218.7 202.7c-.9 1.4-22.7 50.3-22.7 50.8 0 1.1 5.8.4 6.7-.8.5-.6 2.1-3.9 3.6-7.2 1.4-3.3 6.4-14.4 11.1-24.8l8.5-18.7h-3.4c-1.9 0-3.6.3-3.8.7zM98.2 240.7c.3 3.8.3 3.8 5.1 4.1l4.7.3V237H97.9l.3 3.7zM155 241v4h9v-8h-9v4zM179.2 240.7c.3 3.8.3 3.8 5.1 4.1l4.7.3V237h-10.1l.3 3.7zM236 241v4h9v-8h-9v4zM125 278v15h101v-30H125v15zm99 0v13h-97v-26h97v13z"/><path d="M134 270c0 .5-.7 1-1.5 1s-1.5.4-1.5 1c0 .5.7 1 1.5 1 1.2 0 1.5 1.4 1.5 6.5s-.3 6.5-1.5 6.5c-.8 0-1.5.4-1.5 1 0 .5 1.8 1 4 1s4-.5 4-1c0-.6-.7-1-1.5-1-1.2 0-1.5-1.6-1.5-8.5 0-5-.4-8.5-1-8.5-.5 0-1 .4-1 1zM143 273.5c0 4.3.1 4.5 2.9 4.5 4 0 5.7 2.3 4.2 5.6-1 2.2-1.6 2.5-4.2 1.9-2.4-.6-3-.4-2.7.6.7 2.1 5.7 2.3 7.9.3 3.7-3.3 1.5-10.4-3.2-10.4-1.4 0-1.9-.7-1.9-2.5 0-2.2.4-2.5 3.5-2.5 1.9 0 3.5-.5 3.5-1 0-.6-2.2-1-5-1h-5v4.5zM157.3 270.2c-1.8 2.2-2.4 8.6-1.3 12.8 1.3 5 5 6.4 8.2 3.2 2.4-2.4 3-11.3 1-15-1.4-2.5-6.3-3.1-7.9-1zm6.1 2.4c1.2 3.1.6 11.1-.9 12.4-2.7 2.2-4.5-.5-4.5-7 0-3.1.3-6 .7-6.3 1.2-1.3 4.1-.7 4.7.9zM177 278.5c0 5.7.4 9.5 1 9.5s1-1.7 1-3.8c0-2.1.3-4.2.6-4.5.4-.4 2.2 1.4 4.1 3.8 3 4 5.3 5.7 5.3 3.9 0-.4-1.6-2.8-3.5-5.5l-3.6-4.8 3.7-4c2.1-2.4 3.1-4.1 2.3-4.1-.8 0-3.1 1.9-5.1 4.2l-3.7 4.3-.1-4.3c0-2.3-.4-4.2-1-4.2s-1 3.8-1 9.5zM191 278.5c0 9.8 1.6 13.3 2.2 4.7.3-4.6.3-4.7 4-5l3.7-.3.3 4.8c.5 8.3 2.3 5.3 2.6-4.5.2-7.7 0-9.2-1.3-9.2-1.1 0-1.5 1-1.5 3.5 0 3.4-.1 3.5-4 3.5s-4-.1-4-3.5c0-1.9-.4-3.5-1-3.5s-1 3.8-1 9.5zM206.5 275c.3.5 1.7 1 3.1 1 3 0 3 .2-.6 5.5-1.6 2.4-3 4.8-3 5.4 0 1.4 8.7 1.5 9.5.1.4-.6-.8-1-2.9-1-2 0-3.6-.3-3.6-.6s1.3-2.4 2.8-4.7c4.8-7 4.8-6.7-.8-6.7-3.2 0-4.9.4-4.5 1zM25 301v28h50v-56H25v28zm48 0v26H27v-52h46v26z"/><path d="M38 300.5V312h24v-23H38v11.5zM285 306.5V332h48v-51h-48v25.5zm46 0V330h-44v-47h44v23.5z"/><path d="M309.9 300.3c-4.2 5-10 12-12.8 15.4l-5.3 6.3h3.9c3.6-.1 4.2-.6 14.3-12.6 5.8-6.9 11.5-13.9 12.8-15.5l2.3-2.9h-3.8c-3.6 0-4.2.6-11.4 9.3zM84 316v18h83v-36H84v18zm81 0v16H86v-32h79v16z"/><path d="M90 306.5c0 1.2 1.4 1.5 7 1.5h7v20h6v-19.9l7.2-.3c4.6-.2 7.3-.7 7.6-1.6.3-.9-3.6-1.2-17.2-1.2-15 0-17.6.2-17.6 1.5zM131.1 310c3 2.7 5.7 4.9 6.2 5 2.1.1 0 3-5.3 7.4-3.3 2.8-6 5.1-6 5.3 0 .2 1.3.3 2.9.3 2 0 4.4-1.4 8-4.6l5.1-4.6 5 4.6c3.8 3.6 5.6 4.6 8.2 4.6l3.3-.1-6.4-5.7-6.3-5.8 6.3-5.7c6.1-5.4 6.3-5.6 3.6-5.7-2 0-4.5 1.4-8.1 4.5l-5.2 4.4-5.1-4.4c-3.8-3.4-5.9-4.5-8.4-4.5h-3.3l5.5 5zM173 316.5V334h104v-35H173v17.5zm102 0V332H175v-31h100v15.5z"/><path d="M206.2 306.7c.2 1.3 3.7 2.7 12.8 5.3 6.9 2 13.2 3.9 14 4.2 1.4.5-1 1.3-20 6.8-4.5 1.4-7 2.6-7 3.5 0 .8.6 1.5 1.3 1.5.6 0 9.1-2.3 18.7-5 9.6-2.8 17.6-5 17.7-5 .2 0 .3-.6.3-1.3 0-.9-6.5-3.2-18.3-6.5-10.1-2.9-18.7-5.2-19.1-5.2-.4 0-.6.8-.4 1.7z"/></svg>